<?xml version="1.0" standalone="no"?>
<!DOCTYPE svg PUBLIC "-//W3C//DTD SVG 20010904//EN"
 "http://www.w3.org/TR/2001/REC-SVG-20010904/DTD/svg10.dtd">
<svg version="1.0" xmlns="http://www.w3.org/2000/svg"
 width="1115.000000pt" height="1280.000000pt" viewBox="0 0 1115.000000 1280.000000"
 preserveAspectRatio="xMidYMid meet">
<metadata>
Created by potrace 1.15, written by Peter Selinger 2001-2017
</metadata>
<g transform="translate(0.000000,1280.000000) scale(0.100000,-0.100000)"
fill="#000000" stroke="none">
<path d="M1129 12083 c-24 -60 -33 -199 -19 -295 17 -126 17 -164 -3 -453 -67
-992 -71 -4516 -7 -5770 17 -318 27 -388 117 -785 46 -206 100 -447 119 -535
50 -232 96 -427 100 -423 12 13 293 1340 303 1435 87 827 92 5124 8 6183 -6
85 -11 181 -9 213 9 231 6 393 -8 422 l-15 30 -288 3 -287 2 -11 -27z"/>
<path d="M1315 3767 c-45 -18 -153 -75 -240 -127 -281 -167 -385 -305 -385
-511 0 -347 281 -584 785 -661 131 -20 173 -21 660 -19 634 2 905 -13 1335
-75 397 -56 654 -136 1140 -351 332 -147 487 -229 712 -375 162 -105 242 -203
331 -403 57 -130 96 -184 178 -246 218 -166 718 -289 1239 -306 290 -9 416 9
916 127 382 91 514 117 659 131 197 18 258 6 542 -112 78 -33 149 -59 158 -59
24 0 250 154 233 158 -7 2 -108 42 -224 88 -250 99 -311 112 -468 95 -146 -16
-283 -43 -612 -121 -576 -137 -663 -151 -934 -151 -529 1 -1073 133 -1283 313
-63 53 -95 102 -154 233 -95 214 -179 308 -379 427 -304 180 -526 288 -938
453 -464 186 -725 242 -1451 316 -60 6 -393 14 -740 19 -510 6 -650 11 -735
24 -196 31 -319 73 -446 152 -74 45 -182 151 -210 205 -70 137 -76 303 -15
434 34 74 131 181 170 190 22 5 225 146 259 180 14 13 -31 2 -103 -28z"/>
</g>
</svg>
