<?xml version="1.0" standalone="no"?>
<!DOCTYPE svg PUBLIC "-//W3C//DTD SVG 20010904//EN"
 "http://www.w3.org/TR/2001/REC-SVG-20010904/DTD/svg10.dtd">
<svg version="1.0" xmlns="http://www.w3.org/2000/svg"
 width="1280.000000pt" height="426.000000pt" viewBox="0 0 1280.000000 426.000000"
 preserveAspectRatio="xMidYMid meet">
<metadata>
Created by potrace 1.15, written by Peter Selinger 2001-2017
</metadata>
<g transform="translate(0.000000,426.000000) scale(0.100000,-0.100000)"
fill="#495D63" stroke="none">
<path d="M92 2863 c27 -2 69 -2 96 0 26 2 4 3 -48 3 -52 0 -74 -1 -48 -3z"/>
<path d="M250 2618 l5 -253 3 248 2 247 25 0 24 0 3 -122 3 -123 5 128 5 127
-40 0 -40 0 5 -252z"/>
<path d="M352 2863 c15 -4 18 -21 20 -126 l3 -122 5 128 5 127 -25 -1 c-16 -1
-19 -3 -8 -6z"/>
<path d="M413 2863 c15 -4 17 -19 17 -124 0 -73 4 -119 10 -119 6 0 10 48 10
125 l0 125 -27 -1 c-17 -1 -21 -3 -10 -6z"/>
<path d="M473 2863 c15 -4 17 -19 17 -124 0 -73 4 -119 10 -119 6 0 10 48 10
125 l0 125 -27 -1 c-17 -1 -21 -3 -10 -6z"/>
<path d="M550 2685 c0 -117 4 -185 10 -185 6 0 10 66 10 179 0 163 2 180 18
184 10 3 6 5 -10 6 l-28 1 0 -185z"/>
<path d="M618 2773 c4 -154 9 -169 10 -36 2 107 4 122 20 126 11 3 9 5 -8 6
l-25 1 3 -97z"/>
<path d="M680 2743 l5 -128 3 123 c3 122 3 122 27 122 24 0 24 0 27 -122 l3
-123 5 128 5 127 -40 0 -40 0 5 -127z"/>
<path d="M782 2863 c15 -4 18 -21 20 -126 l3 -122 5 128 5 127 -25 -1 c-16 -1
-19 -3 -8 -6z"/>
<path d="M843 2863 c16 -4 17 -25 17 -249 0 -161 3 -243 10 -239 6 4 10 98 10
251 l0 244 -27 -1 c-17 -1 -21 -3 -10 -6z"/>
<path d="M903 2863 c15 -4 17 -19 17 -124 0 -73 4 -119 10 -119 6 0 10 48 10
125 l0 125 -27 -1 c-17 -1 -21 -3 -10 -6z"/>
<path d="M980 2745 c0 -77 4 -125 10 -125 6 0 10 46 10 119 0 105 2 120 18
124 10 3 6 5 -10 6 l-28 1 0 -125z"/>
<path d="M1040 2745 c0 -77 4 -125 10 -125 6 0 10 46 10 119 0 105 2 120 18
124 10 3 6 5 -10 6 l-28 1 0 -125z"/>
<path d="M1110 2743 l5 -128 3 123 3 122 24 0 25 0 2 -182 3 -183 5 188 5 187
-40 0 -40 0 5 -127z"/>
<path d="M1212 2863 c15 -4 18 -21 20 -126 l3 -122 5 128 5 127 -25 -1 c-16
-1 -19 -3 -8 -6z"/>
<path d="M1273 2863 c15 -4 17 -19 17 -124 0 -73 4 -119 10 -119 6 0 10 48 10
125 l0 125 -27 -1 c-17 -1 -21 -3 -10 -6z"/>
<path d="M1333 2863 c15 -4 17 -19 17 -124 0 -73 4 -119 10 -119 6 0 10 48 10
125 l0 125 -27 -1 c-17 -1 -21 -3 -10 -6z"/>
<path d="M1410 2745 c0 -77 4 -125 10 -125 6 0 10 46 10 119 0 105 2 120 18
124 10 3 6 5 -10 6 l-28 1 0 -125z"/>
<path d="M1470 2626 c0 -153 4 -247 10 -251 7 -4 10 78 10 239 0 224 1 245 18
249 10 3 6 5 -10 6 l-28 1 0 -244z"/>
<path d="M1540 2743 l5 -128 3 122 c2 105 5 122 20 126 11 3 8 5 -8 6 l-25 1
5 -127z"/>
<path d="M1600 2743 l5 -128 3 123 c3 122 3 122 27 122 24 0 24 0 27 -122 l3
-123 5 128 5 127 -40 0 -40 0 5 -127z"/>
<path d="M1703 2863 c15 -4 17 -19 17 -124 0 -73 4 -119 10 -119 6 0 10 48 10
125 l0 125 -27 -1 c-17 -1 -21 -3 -10 -6z"/>
<path d="M1763 2863 c15 -4 17 -21 17 -184 0 -113 4 -179 10 -179 6 0 10 68
10 185 l0 185 -27 -1 c-17 -1 -21 -3 -10 -6z"/>
<path d="M1840 2745 c0 -77 4 -125 10 -125 6 0 10 46 10 119 0 105 2 120 18
124 10 3 6 5 -10 6 l-28 1 0 -125z"/>
<path d="M1900 2745 c0 -77 4 -125 10 -125 6 0 10 46 10 119 0 105 2 120 18
124 10 3 6 5 -10 6 l-28 1 0 -125z"/>
<path d="M1970 2743 l5 -128 3 122 c2 105 5 122 20 126 11 3 8 5 -8 6 l-25 1
5 -127z"/>
<path d="M2030 2743 l5 -128 3 123 3 122 24 0 25 0 2 -247 3 -248 5 253 5 252
-40 0 -40 0 5 -127z"/>
<path d="M2132 2863 c15 -4 18 -21 20 -126 l3 -122 5 128 5 127 -25 -1 c-16
-1 -19 -3 -8 -6z"/>
<path d="M2193 2863 c15 -4 17 -19 17 -124 0 -73 4 -119 10 -119 6 0 10 48 10
125 l0 125 -27 -1 c-17 -1 -21 -3 -10 -6z"/>
<path d="M2253 2863 c15 -4 17 -19 17 -124 0 -73 4 -119 10 -119 6 0 10 48 10
125 l0 125 -27 -1 c-17 -1 -21 -3 -10 -6z"/>
<path d="M2330 2745 c0 -77 4 -125 10 -125 6 0 10 46 10 119 0 105 2 120 18
124 10 3 6 5 -10 6 l-28 1 0 -125z"/>
<path d="M2400 2683 l5 -188 3 182 c2 162 4 182 20 186 11 3 9 5 -8 6 l-25 1
5 -187z"/>
<path d="M2460 2743 l5 -128 3 123 c3 122 3 122 27 122 24 0 24 0 27 -122 l3
-123 5 128 5 127 -40 0 -40 0 5 -127z"/>
<path d="M2562 2863 c15 -4 18 -21 20 -126 l3 -122 5 128 5 127 -25 -1 c-16
-1 -19 -3 -8 -6z"/>
<path d="M2623 2863 c15 -4 17 -19 17 -124 0 -73 4 -119 10 -119 6 0 10 48 10
125 l0 125 -27 -1 c-17 -1 -21 -3 -10 -6z"/>
<path d="M2683 2863 c16 -4 17 -24 17 -244 0 -153 4 -239 10 -239 6 0 10 88
10 245 l0 245 -27 -1 c-17 -1 -21 -3 -10 -6z"/>
<path d="M2760 2745 c0 -77 4 -125 10 -125 6 0 10 46 10 119 0 105 2 120 18
124 10 3 6 5 -10 6 l-28 1 0 -125z"/>
<path d="M2820 2745 c0 -77 4 -125 10 -125 6 0 10 46 10 119 0 105 2 120 18
124 10 3 6 5 -10 6 l-28 1 0 -125z"/>
<path d="M2890 2743 l5 -128 3 123 c3 122 3 122 27 122 24 0 24 0 27 -122 l3
-123 5 128 5 127 -40 0 -40 0 5 -127z"/>
<path d="M2992 2863 c16 -4 18 -24 20 -186 l3 -182 5 188 5 187 -25 -1 c-17
-1 -19 -3 -8 -6z"/>
<path d="M3053 2863 c15 -4 17 -19 17 -124 0 -73 4 -119 10 -119 6 0 10 48 10
125 l0 125 -27 -1 c-17 -1 -21 -3 -10 -6z"/>
<path d="M3130 2745 c0 -77 4 -125 10 -125 6 0 10 48 10 125 0 77 -4 125 -10
125 -6 0 -10 -48 -10 -125z"/>
<path d="M3190 2745 c0 -77 4 -125 10 -125 6 0 10 46 10 119 0 105 2 120 18
124 10 3 6 5 -10 6 l-28 1 0 -125z"/>
<path d="M3250 2745 c0 -77 4 -125 10 -125 6 0 10 46 10 119 0 105 2 120 18
124 10 3 6 5 -10 6 l-28 1 0 -125z"/>
<path d="M3320 2618 l5 -253 3 247 c2 224 4 247 20 251 11 3 9 5 -8 6 l-25 1
5 -252z"/>
<path d="M3380 2743 l5 -128 3 123 c3 122 3 122 27 122 24 0 24 0 27 -122 l3
-123 5 128 5 127 -40 0 -40 0 5 -127z"/>
<path d="M3483 2863 c15 -4 17 -19 17 -124 0 -73 4 -119 10 -119 6 0 10 48 10
125 l0 125 -27 -1 c-17 -1 -21 -3 -10 -6z"/>
<path d="M3543 2863 c15 -4 17 -19 17 -124 0 -73 4 -119 10 -119 6 0 10 48 10
125 l0 125 -27 -1 c-17 -1 -21 -3 -10 -6z"/>
<path d="M3620 2685 c0 -117 4 -185 10 -185 6 0 10 66 10 179 0 163 2 180 18
184 10 3 6 5 -10 6 l-28 1 0 -185z"/>
<path d="M3680 2745 c0 -77 4 -125 10 -125 6 0 10 46 10 119 0 105 2 120 18
124 10 3 6 5 -10 6 l-28 1 0 -125z"/>
<path d="M3750 2743 l5 -128 3 122 c2 105 5 122 20 126 11 3 8 5 -8 6 l-25 1
5 -127z"/>
<path d="M3810 2743 l5 -128 3 123 c3 122 3 122 27 122 24 0 24 0 27 -122 l3
-123 5 128 5 127 -40 0 -40 0 5 -127z"/>
<path d="M3913 2863 c16 -4 17 -25 17 -250 0 -136 2 -244 5 -241 3 3 6 116 8
252 l2 246 -25 -1 c-17 -1 -19 -3 -7 -6z"/>
<path d="M3973 2863 c15 -4 17 -19 17 -124 0 -73 4 -119 10 -119 6 0 10 48 10
125 l0 125 -27 -1 c-17 -1 -21 -3 -10 -6z"/>
<path d="M4050 2745 c0 -77 4 -125 10 -125 6 0 10 46 10 119 0 105 2 120 18
124 10 3 6 5 -10 6 l-28 1 0 -125z"/>
<path d="M4110 2745 c0 -77 4 -125 10 -125 6 0 10 46 10 119 0 105 2 120 18
124 10 3 6 5 -10 6 l-28 1 0 -125z"/>
<path d="M4180 2743 l5 -128 3 122 c2 105 5 122 20 126 11 3 8 5 -8 6 l-25 1
5 -127z"/>
<path d="M4240 2683 l5 -188 3 183 2 182 25 0 24 0 3 -122 3 -123 5 128 5 127
-40 0 -40 0 5 -187z"/>
<path d="M4343 2863 c15 -4 17 -19 19 -126 1 -133 6 -118 10 36 l3 97 -25 -1
c-17 -1 -19 -3 -7 -6z"/>
<path d="M4403 2863 c15 -4 17 -19 17 -124 0 -73 4 -119 10 -119 6 0 10 48 10
125 l0 125 -27 -1 c-17 -1 -21 -3 -10 -6z"/>
<path d="M4463 2863 c15 -4 17 -19 17 -124 0 -73 4 -119 10 -119 6 0 10 48 10
125 l0 125 -27 -1 c-17 -1 -21 -3 -10 -6z"/>
<path d="M4540 2626 c0 -153 4 -247 10 -251 7 -4 10 78 10 239 0 224 1 245 18
249 10 3 6 5 -10 6 l-28 1 0 -244z"/>
<path d="M4600 2745 c0 -77 4 -125 10 -125 6 0 10 46 10 119 0 105 2 120 18
124 10 3 6 5 -10 6 l-28 1 0 -125z"/>
<path d="M4670 2743 l5 -128 3 123 c3 122 3 122 27 122 24 0 24 0 27 -122 l3
-123 5 128 5 127 -40 0 -40 0 5 -127z"/>
<path d="M4772 2863 c15 -4 18 -21 20 -126 l3 -122 5 128 5 127 -25 -1 c-16
-1 -19 -3 -8 -6z"/>
<path d="M4833 2863 c15 -4 17 -21 17 -184 0 -113 4 -179 10 -179 6 0 10 68
10 185 l0 185 -27 -1 c-17 -1 -21 -3 -10 -6z"/>
<path d="M4893 2863 c15 -4 17 -19 17 -124 0 -73 4 -119 10 -119 6 0 10 48 10
125 l0 125 -27 -1 c-17 -1 -21 -3 -10 -6z"/>
<path d="M4970 2745 c0 -77 4 -125 10 -125 6 0 10 46 10 119 0 105 2 120 18
124 10 3 6 5 -10 6 l-28 1 0 -125z"/>
<path d="M5030 2745 c0 -77 4 -125 10 -125 6 0 10 46 10 119 0 105 2 120 18
124 10 3 6 5 -10 6 l-28 1 0 -125z"/>
<path d="M5100 2743 l5 -128 3 122 c2 105 5 122 20 126 11 3 8 5 -8 6 l-25 1
5 -127z"/>
<path d="M5160 2618 c4 -253 8 -232 12 85 2 106 -1 167 -7 167 -7 0 -8 -88 -5
-252z"/>
<path d="M5202 2863 c15 -4 18 -21 20 -126 l3 -122 5 128 5 127 -25 -1 c-16
-1 -19 -3 -8 -6z"/>
<path d="M5263 2863 c15 -4 17 -19 17 -124 0 -73 4 -119 10 -119 6 0 10 48 10
125 l0 125 -27 -1 c-17 -1 -21 -3 -10 -6z"/>
<path d="M5340 2745 c0 -77 4 -125 10 -125 6 0 10 48 10 125 0 77 -4 125 -10
125 -6 0 -10 -48 -10 -125z"/>
<path d="M5400 2745 c0 -77 4 -125 10 -125 6 0 10 46 10 119 0 105 2 120 18
124 10 3 6 5 -10 6 l-28 1 0 -125z"/>
<path d="M5460 2685 c0 -117 4 -185 10 -185 6 0 10 66 10 179 0 163 2 180 18
184 10 3 6 5 -10 6 l-28 1 0 -185z"/>
<path d="M5530 2743 l5 -128 3 122 c2 105 5 122 20 126 11 3 8 5 -8 6 l-25 1
5 -127z"/>
<path d="M5588 2783 c5 -159 8 -170 12 -40 3 81 1 127 -5 127 -6 0 -9 -34 -7
-87z"/>
<path d="M5632 2863 c15 -4 18 -21 20 -126 l3 -122 5 128 5 127 -25 -1 c-16
-1 -19 -3 -8 -6z"/>
<path d="M5693 2863 c15 -4 17 -19 17 -124 0 -73 4 -119 10 -119 6 0 10 48 10
125 l0 125 -27 -1 c-17 -1 -21 -3 -10 -6z"/>
<path d="M5753 2863 c16 -4 17 -24 17 -244 0 -153 4 -239 10 -239 6 0 10 88
10 245 l0 245 -27 -1 c-17 -1 -21 -3 -10 -6z"/>
<path d="M5830 2745 c0 -77 4 -125 10 -125 6 0 10 46 10 119 0 105 2 120 18
124 10 3 6 5 -10 6 l-28 1 0 -125z"/>
<path d="M5890 2745 c0 -77 4 -125 10 -125 6 0 10 46 10 119 0 105 2 120 18
124 10 3 6 5 -10 6 l-28 1 0 -125z"/>
<path d="M5960 2743 l5 -128 3 122 c2 105 5 122 20 126 11 3 8 5 -8 6 l-25 1
5 -127z"/>
<path d="M6020 2743 l5 -128 3 123 3 122 24 0 25 0 2 -182 3 -183 5 188 5 187
-40 0 -40 0 5 -127z"/>
<path d="M6123 2863 c15 -4 17 -19 17 -124 0 -76 4 -119 10 -119 7 0 10 44 9
125 l-1 125 -27 -1 c-16 -1 -20 -3 -8 -6z"/>
<path d="M6183 2863 c15 -4 17 -19 17 -124 0 -73 4 -119 10 -119 6 0 10 48 10
125 l0 125 -27 -1 c-17 -1 -21 -3 -10 -6z"/>
<path d="M6260 2745 c0 -77 4 -125 10 -125 6 0 10 48 10 125 0 77 -4 125 -10
125 -6 0 -10 -48 -10 -125z"/>
<path d="M6320 2745 c0 -77 4 -125 10 -125 6 0 10 46 10 119 0 105 2 120 18
124 10 3 6 5 -10 6 l-28 1 0 -125z"/>
<path d="M6380 2626 c0 -153 4 -247 10 -251 7 -4 10 78 10 239 0 224 1 245 18
249 10 3 6 5 -10 6 l-28 1 0 -244z"/>
<path d="M6450 2743 l5 -128 3 123 c3 122 3 122 27 122 24 0 24 0 27 -122 l3
-123 5 128 5 127 -40 0 -40 0 5 -127z"/>
<path d="M6553 2863 c15 -4 17 -19 19 -126 1 -133 6 -118 10 36 l3 97 -25 -1
c-17 -1 -19 -3 -7 -6z"/>
<path d="M6613 2863 c15 -4 17 -19 17 -124 0 -73 4 -119 10 -119 6 0 10 48 10
125 l0 125 -27 -1 c-17 -1 -21 -3 -10 -6z"/>
<path d="M6673 2863 c15 -4 17 -21 17 -184 0 -113 4 -179 10 -179 6 0 10 68
10 185 l0 185 -27 -1 c-17 -1 -21 -3 -10 -6z"/>
<path d="M6750 2745 c0 -77 4 -125 10 -125 6 0 10 46 10 119 0 105 2 120 18
124 10 3 6 5 -10 6 l-28 1 0 -125z"/>
<path d="M6810 2745 c0 -77 4 -125 10 -125 6 0 10 46 10 119 0 105 2 120 18
124 10 3 6 5 -10 6 l-28 1 0 -125z"/>
<path d="M6880 2743 l5 -128 3 122 c2 105 5 122 20 126 11 3 8 5 -8 6 l-25 1
5 -127z"/>
<path d="M6938 2783 c5 -159 8 -170 12 -40 3 81 1 127 -5 127 -6 0 -9 -34 -7
-87z"/>
<path d="M6983 2863 c16 -4 17 -25 17 -250 0 -136 2 -244 5 -241 3 3 6 116 8
252 l2 246 -25 -1 c-17 -1 -19 -3 -7 -6z"/>
<path d="M7043 2863 c15 -4 17 -19 17 -124 0 -73 4 -119 10 -119 6 0 10 48 10
125 l0 125 -27 -1 c-17 -1 -21 -3 -10 -6z"/>
<path d="M7103 2863 c15 -4 17 -19 17 -124 0 -73 4 -119 10 -119 6 0 10 48 10
125 l0 125 -27 -1 c-17 -1 -21 -3 -10 -6z"/>
<path d="M7180 2745 c0 -77 4 -125 10 -125 6 0 10 46 10 119 0 105 2 120 18
124 10 3 6 5 -10 6 l-28 1 0 -125z"/>
<path d="M7240 2745 c0 -77 4 -125 10 -125 6 0 10 46 10 119 0 105 2 120 18
124 10 3 6 5 -10 6 l-28 1 0 -125z"/>
<path d="M7310 2683 l5 -188 3 182 c2 162 4 182 20 186 11 3 9 5 -8 6 l-25 1
5 -187z"/>
<path d="M7368 2783 c5 -159 8 -170 12 -40 3 81 1 127 -5 127 -6 0 -9 -34 -7
-87z"/>
<path d="M7412 2863 c15 -4 18 -21 20 -126 l3 -122 5 128 5 127 -25 -1 c-16
-1 -19 -3 -8 -6z"/>
<path d="M7473 2863 c15 -4 17 -19 17 -124 0 -73 4 -119 10 -119 6 0 10 48 10
125 l0 125 -27 -1 c-17 -1 -21 -3 -10 -6z"/>
<path d="M7550 2745 c0 -77 4 -125 10 -125 6 0 10 48 10 125 0 77 -4 125 -10
125 -6 0 -10 -48 -10 -125z"/>
<path d="M7610 2626 c0 -153 4 -247 10 -251 7 -4 10 78 10 239 0 224 1 245 18
249 10 3 6 5 -10 6 l-28 1 0 -244z"/>
<path d="M7670 2745 c0 -77 4 -125 10 -125 6 0 10 46 10 119 0 105 2 120 18
124 10 3 6 5 -10 6 l-28 1 0 -125z"/>
<path d="M7740 2743 l5 -128 3 122 c2 105 5 122 20 126 11 3 8 5 -8 6 l-25 1
5 -127z"/>
<path d="M7798 2783 c5 -159 8 -170 12 -40 3 81 1 127 -5 127 -6 0 -9 -34 -7
-87z"/>
<path d="M7842 2863 c15 -4 18 -21 20 -126 l3 -122 5 128 5 127 -25 -1 c-16
-1 -19 -3 -8 -6z"/>
<path d="M7903 2863 c15 -4 17 -21 17 -184 0 -113 4 -179 10 -179 6 0 10 68
10 185 l0 185 -27 -1 c-17 -1 -21 -3 -10 -6z"/>
<path d="M7963 2863 c15 -4 17 -19 17 -124 0 -73 4 -119 10 -119 6 0 10 48 10
125 l0 125 -27 -1 c-17 -1 -21 -3 -10 -6z"/>
<path d="M8040 2745 c0 -77 4 -125 10 -125 6 0 10 48 10 125 0 77 -4 125 -10
125 -6 0 -10 -48 -10 -125z"/>
<path d="M8100 2745 c0 -77 4 -125 10 -125 6 0 10 46 10 119 0 105 2 120 18
124 10 3 6 5 -10 6 l-28 1 0 -125z"/>
<path d="M8170 2743 l5 -128 3 122 c2 105 5 122 20 126 11 3 8 5 -8 6 l-25 1
5 -127z"/>
<path d="M8230 2618 c4 -253 8 -232 12 85 2 106 -1 167 -7 167 -7 0 -8 -88 -5
-252z"/>
<path d="M8272 2863 c15 -4 18 -21 20 -126 l3 -122 5 128 5 127 -25 -1 c-16
-1 -19 -3 -8 -6z"/>
<path d="M8333 2863 c15 -4 17 -19 17 -124 0 -73 4 -119 10 -119 6 0 10 48 10
125 l0 125 -27 -1 c-17 -1 -21 -3 -10 -6z"/>
<path d="M8393 2863 c15 -4 17 -19 17 -124 0 -73 4 -119 10 -119 6 0 10 48 10
125 l0 125 -27 -1 c-17 -1 -21 -3 -10 -6z"/>
<path d="M8470 2745 c0 -77 4 -125 10 -125 6 0 10 48 10 125 0 77 -4 125 -10
125 -6 0 -10 -48 -10 -125z"/>
<path d="M8530 2685 c0 -117 4 -185 10 -185 6 0 10 66 10 179 0 163 2 180 18
184 10 3 6 5 -10 6 l-28 1 0 -185z"/>
<path d="M8590 2745 c0 -77 4 -125 10 -125 6 0 10 46 10 119 0 105 2 120 18
124 10 3 6 5 -10 6 l-28 1 0 -125z"/>
<path d="M8660 2743 l5 -128 3 122 c2 105 5 122 20 126 11 3 8 5 -8 6 l-25 1
5 -127z"/>
<path d="M8718 2783 c5 -159 8 -170 12 -40 3 81 1 127 -5 127 -6 0 -9 -34 -7
-87z"/>
<path d="M8763 2863 c15 -4 17 -19 17 -124 0 -76 4 -119 10 -119 7 0 10 44 9
125 l-1 125 -27 -1 c-16 -1 -20 -3 -8 -6z"/>
<path d="M8823 2863 c16 -4 17 -24 17 -244 0 -153 4 -239 10 -239 6 0 10 88
10 245 l0 245 -27 -1 c-17 -1 -21 -3 -10 -6z"/>
<path d="M8900 2745 c0 -77 4 -125 10 -125 6 0 10 48 10 125 0 77 -4 125 -10
125 -6 0 -10 -48 -10 -125z"/>
<path d="M8960 2745 c0 -77 4 -125 10 -125 6 0 10 46 10 119 0 105 2 120 18
124 10 3 6 5 -10 6 l-28 1 0 -125z"/>
<path d="M9020 2745 c0 -77 4 -125 10 -125 6 0 10 46 10 119 0 105 2 120 18
124 10 3 6 5 -10 6 l-28 1 0 -125z"/>
<path d="M9090 2743 l5 -128 3 122 c2 105 5 122 20 126 11 3 8 5 -8 6 l-25 1
5 -127z"/>
<path d="M9150 2683 c4 -187 7 -171 12 65 2 76 -1 122 -7 122 -6 0 -8 -66 -5
-187z"/>
<path d="M9193 2863 c15 -4 17 -19 19 -126 1 -133 6 -118 10 36 l3 97 -25 -1
c-17 -1 -19 -3 -7 -6z"/>
<path d="M9253 2863 c15 -4 17 -19 17 -124 0 -73 4 -119 10 -119 6 0 10 48 10
125 l0 125 -27 -1 c-17 -1 -21 -3 -10 -6z"/>
<path d="M9313 2863 c15 -4 17 -19 17 -124 0 -73 4 -119 10 -119 6 0 10 48 10
125 l0 125 -27 -1 c-17 -1 -21 -3 -10 -6z"/>
<path d="M9390 2745 c0 -77 4 -125 10 -125 6 0 10 46 10 119 0 105 2 120 18
124 10 3 6 5 -10 6 l-28 1 0 -125z"/>
<path d="M9450 2626 c0 -153 4 -247 10 -251 7 -4 10 78 10 239 0 224 1 245 18
249 10 3 6 5 -10 6 l-28 1 0 -244z"/>
<path d="M9520 2743 l5 -128 3 122 c2 105 5 122 20 126 11 3 8 5 -8 6 l-25 1
5 -127z"/>
<path d="M9578 2783 c5 -159 8 -170 12 -40 3 81 1 127 -5 127 -6 0 -9 -34 -7
-87z"/>
<path d="M9623 2863 c15 -4 17 -19 19 -126 1 -133 6 -118 10 36 l3 97 -25 -1
c-17 -1 -19 -3 -7 -6z"/>
<path d="M9683 2863 c15 -4 17 -19 17 -124 0 -73 4 -119 10 -119 6 0 10 48 10
125 l0 125 -27 -1 c-17 -1 -21 -3 -10 -6z"/>
<path d="M9760 2685 c0 -117 4 -185 10 -185 6 0 10 68 10 185 0 117 -4 185
-10 185 -6 0 -10 -68 -10 -185z"/>
<path d="M9820 2745 c0 -77 4 -125 10 -125 6 0 10 46 10 119 0 105 2 120 18
124 10 3 6 5 -10 6 l-28 1 0 -125z"/>
<path d="M9880 2745 c0 -77 4 -125 10 -125 6 0 10 46 10 119 0 105 2 120 18
124 10 3 6 5 -10 6 l-28 1 0 -125z"/>
<path d="M9950 2743 l5 -128 3 122 c2 105 5 122 20 126 11 3 8 5 -8 6 l-25 1
5 -127z"/>
<path d="M10008 2783 c5 -159 8 -170 12 -40 3 81 1 127 -5 127 -6 0 -9 -34 -7
-87z"/>
<path d="M10052 2863 c16 -4 18 -27 20 -251 l3 -247 5 253 5 252 -25 -1 c-17
-1 -19 -3 -8 -6z"/>
<path d="M10113 2863 c15 -4 17 -19 17 -124 0 -73 4 -119 10 -119 6 0 10 48
10 125 l0 125 -27 -1 c-17 -1 -21 -3 -10 -6z"/>
<path d="M10173 2863 c15 -4 17 -19 17 -124 0 -73 4 -119 10 -119 6 0 10 48
10 125 l0 125 -27 -1 c-17 -1 -21 -3 -10 -6z"/>
<path d="M10250 2745 c0 -77 4 -125 10 -125 6 0 10 46 10 119 0 105 2 120 18
124 10 3 6 5 -10 6 l-28 1 0 -125z"/>
<path d="M10310 2745 c0 -77 4 -125 10 -125 6 0 10 46 10 119 0 105 2 120 18
124 10 3 6 5 -10 6 l-28 1 0 -125z"/>
<path d="M10375 2685 c0 -102 3 -185 8 -185 4 0 7 81 7 179 0 163 2 180 18
184 11 3 9 5 -8 6 l-25 1 0 -185z"/>
<path d="M10438 2783 c5 -159 8 -170 12 -40 3 81 1 127 -5 127 -6 0 -9 -34 -7
-87z"/>
<path d="M10482 2863 c15 -4 18 -21 20 -126 l3 -122 5 128 5 127 -25 -1 c-16
-1 -19 -3 -8 -6z"/>
<path d="M10543 2863 c15 -4 17 -19 17 -124 0 -73 4 -119 10 -119 6 0 10 48
10 125 l0 125 -27 -1 c-17 -1 -21 -3 -10 -6z"/>
<path d="M10603 2863 c15 -4 17 -19 17 -124 0 -73 4 -119 10 -119 6 0 10 48
10 125 l0 125 -27 -1 c-17 -1 -21 -3 -10 -6z"/>
<path d="M10680 2625 c0 -157 4 -245 10 -245 6 0 10 88 10 245 0 157 -4 245
-10 245 -6 0 -10 -88 -10 -245z"/>
<path d="M10740 2745 c0 -77 4 -125 10 -125 6 0 10 46 10 119 0 105 2 120 18
124 10 3 6 5 -10 6 l-28 1 0 -125z"/>
<path d="M10801 2751 c-1 -73 2 -122 9 -126 7 -4 10 33 10 114 0 105 2 120 18
124 11 3 7 5 -9 6 l-27 1 -1 -119z"/>
<path d="M10870 2743 l5 -128 3 123 c3 122 3 122 27 122 24 0 24 0 27 -122 l3
-123 5 128 5 127 -40 0 -40 0 5 -127z"/>
<path d="M10973 2863 c15 -4 17 -21 17 -184 0 -113 4 -179 10 -179 6 0 10 68
10 185 l0 185 -27 -1 c-17 -1 -21 -3 -10 -6z"/>
<path d="M11033 2863 c15 -4 17 -19 17 -124 0 -73 4 -119 10 -119 6 0 10 48
10 125 l0 125 -27 -1 c-17 -1 -21 -3 -10 -6z"/>
<path d="M11110 2745 c0 -77 4 -125 10 -125 6 0 10 48 10 125 0 77 -4 125 -10
125 -6 0 -10 -48 -10 -125z"/>
<path d="M11170 2745 c0 -77 4 -125 10 -125 6 0 10 46 10 119 0 105 2 120 18
124 10 3 6 5 -10 6 l-28 1 0 -125z"/>
<path d="M11230 2745 c0 -77 4 -125 10 -125 6 0 10 46 10 119 0 105 2 120 18
124 10 3 6 5 -10 6 l-28 1 0 -125z"/>
<path d="M11300 2618 l5 -253 3 247 c2 224 4 247 20 251 11 3 9 5 -8 6 l-25 1
5 -252z"/>
<path d="M11358 2783 c5 -159 8 -170 12 -40 3 81 1 127 -5 127 -6 0 -9 -34 -7
-87z"/>
<path d="M11403 2863 c15 -4 17 -19 17 -124 0 -73 4 -119 10 -119 6 0 10 48
10 125 l0 125 -27 -1 c-17 -1 -21 -3 -10 -6z"/>
<path d="M11463 2863 c15 -4 17 -19 17 -124 0 -73 4 -119 10 -119 6 0 10 48
10 125 l0 125 -27 -1 c-17 -1 -21 -3 -10 -6z"/>
<path d="M11540 2745 c0 -77 4 -125 10 -125 6 0 10 48 10 125 0 77 -4 125 -10
125 -6 0 -10 -48 -10 -125z"/>
<path d="M11600 2685 c0 -117 4 -185 10 -185 6 0 10 68 10 185 0 117 -4 185
-10 185 -6 0 -10 -68 -10 -185z"/>
<path d="M11660 2745 c0 -77 4 -125 10 -125 6 0 10 46 10 119 0 105 2 120 18
124 10 3 6 5 -10 6 l-28 1 0 -125z"/>
<path d="M11730 2743 l5 -128 3 122 c2 105 5 122 20 126 11 3 8 5 -8 6 l-25 1
5 -127z"/>
<path d="M11788 2783 c5 -159 8 -170 12 -40 3 81 1 127 -5 127 -6 0 -9 -34 -7
-87z"/>
<path d="M11833 2863 c15 -4 17 -19 19 -126 1 -133 6 -118 10 36 l3 97 -25 -1
c-17 -1 -19 -3 -7 -6z"/>
<path d="M11893 2863 c16 -4 17 -25 17 -249 0 -161 3 -243 10 -239 6 4 10 98
10 251 l0 244 -27 -1 c-17 -1 -21 -3 -10 -6z"/>
<path d="M11970 2745 c0 -77 4 -125 10 -125 6 0 10 48 10 125 0 77 -4 125 -10
125 -6 0 -10 -48 -10 -125z"/>
<path d="M12030 2745 c0 -77 4 -125 10 -125 6 0 10 46 10 119 0 105 2 120 18
124 10 3 6 5 -10 6 l-28 1 0 -125z"/>
<path d="M12090 2745 c0 -77 4 -125 10 -125 6 0 10 46 10 119 0 105 2 120 18
124 10 3 6 5 -10 6 l-28 1 0 -125z"/>
<path d="M12160 2743 l5 -128 3 122 c2 105 5 122 20 126 11 3 8 5 -8 6 l-25 1
5 -127z"/>
<path d="M12220 2683 c4 -187 7 -171 12 65 2 76 -1 122 -7 122 -6 0 -8 -66 -5
-187z"/>
<path d="M12263 2863 c15 -4 17 -19 19 -126 1 -133 6 -118 10 36 l3 97 -25 -1
c-17 -1 -19 -3 -7 -6z"/>
<path d="M12323 2863 c15 -4 17 -19 17 -124 0 -73 4 -119 10 -119 6 0 10 48
10 125 l0 125 -27 -1 c-17 -1 -21 -3 -10 -6z"/>
<path d="M12400 2745 c0 -77 4 -125 10 -125 6 0 10 48 10 125 0 77 -4 125 -10
125 -6 0 -10 -48 -10 -125z"/>
<path d="M12460 2745 c0 -77 4 -125 10 -125 6 0 10 46 10 119 0 105 2 120 18
124 10 3 6 5 -10 6 l-28 1 0 -125z"/>
<path d="M12520 2626 c0 -153 4 -247 10 -251 7 -4 10 78 10 239 l0 245 103 4
102 3 -112 2 -113 2 0 -244z"/>
<path d="M20 2845 c-7 -9 -11 -17 -9 -20 3 -2 10 5 17 15 14 24 10 26 -8 5z"/>
<path d="M12775 2140 c0 -382 1 -539 2 -347 2 191 2 503 0 695 -1 191 -2 34
-2 -348z"/>
<path d="M12101 2384 c-24 -31 -27 -76 -7 -93 18 -15 78 -10 83 6 3 8 -6 10
-31 6 -43 -7 -57 16 -35 56 12 20 22 25 42 23 29 -3 37 12 11 22 -28 11 -42 6
-63 -20z"/>
<path d="M12210 2345 c0 -37 4 -65 10 -65 6 0 10 15 10 33 0 20 8 41 19 51 17
16 19 15 25 -15 3 -17 6 -42 6 -55 0 -48 19 -23 22 28 2 40 7 54 19 56 13 2
18 -8 24 -47 9 -64 25 -77 24 -19 -2 81 -9 93 -59 94 -27 1 -52 -5 -62 -14
-16 -14 -18 -13 -18 1 0 10 -4 17 -10 17 -6 0 -10 -28 -10 -65z"/>
<path d="M600 2249 c14 -6 34 -18 45 -27 12 -9 8 -5 -7 11 -16 15 -36 27 -46
26 -12 0 -9 -3 8 -10z"/>
<path d="M466 2219 c-14 -17 -26 -36 -26 -42 0 -7 9 2 19 20 11 17 28 36 38
42 10 6 13 11 6 11 -6 0 -23 -14 -37 -31z"/>
<path d="M847 2232 c-21 -23 -21 -32 -2 -32 12 0 15 -14 15 -65 0 -51 -3 -65
-15 -65 -8 0 -15 -4 -15 -10 0 -5 18 -10 40 -10 22 0 40 5 40 10 0 6 -4 10
-10 10 -6 0 -10 37 -10 90 0 95 -9 110 -43 72z"/>
<path d="M1439 2231 c-30 -25 -22 -34 18 -19 39 15 63 6 56 -21 -3 -12 -9 -21
-13 -21 -21 0 -80 -69 -80 -94 0 -25 1 -26 66 -26 60 0 65 2 53 16 -10 12 -23
14 -51 10 -52 -9 -50 12 7 58 47 39 59 78 33 104 -18 18 -63 14 -89 -7z"/>
<path d="M2058 2239 c-31 -18 -20 -30 21 -23 24 4 41 2 46 -5 9 -16 -13 -41
-36 -41 -26 0 -24 -28 2 -32 27 -4 44 -30 36 -52 -7 -18 -67 -23 -67 -6 0 6
-7 10 -15 10 -22 0 -18 -17 7 -34 32 -22 61 -20 86 7 26 27 27 45 7 74 -10 14
-12 24 -5 28 5 3 10 19 10 35 0 43 -50 64 -92 39z"/>
<path d="M2676 2185 c-25 -36 -46 -68 -46 -70 0 -2 21 -5 47 -7 44 -3 48 -5
53 -33 7 -40 24 -38 28 3 2 22 8 32 20 32 16 1 16 2 0 14 -14 10 -18 28 -18
70 0 79 -24 77 -84 -9z m54 -15 c0 -36 -2 -40 -25 -40 -14 0 -25 2 -25 4 0 8
42 76 46 76 2 0 4 -18 4 -40z"/>
<path d="M3260 2190 c0 -64 6 -72 35 -40 35 39 84 9 71 -44 -9 -38 -50 -55
-75 -32 -13 12 -21 14 -26 6 -19 -30 52 -53 95 -30 35 19 45 92 17 128 -5 6
-27 12 -48 12 -28 0 -39 4 -39 15 0 10 10 15 34 15 40 0 66 8 66 21 0 5 -29 9
-65 9 l-65 0 0 -60z"/>
<path d="M3904 2215 c-35 -47 -45 -126 -19 -155 23 -25 76 -26 98 -2 19 21 22
64 7 93 -8 13 -21 19 -45 19 -42 0 -44 8 -10 40 28 27 32 40 11 40 -8 0 -27
-16 -42 -35z m61 -81 c10 -10 13 -24 9 -38 -14 -45 -52 -46 -73 -2 -12 26 -12
31 5 43 24 17 39 16 59 -3z"/>
<path d="M4480 2235 c0 -11 12 -15 50 -15 28 0 50 -1 50 -2 -1 -2 -18 -39 -40
-83 -21 -44 -35 -84 -30 -89 10 -10 30 1 30 17 0 21 50 121 72 144 30 32 15
43 -63 43 -55 0 -69 -3 -69 -15z"/>
<path d="M5120 2230 c-23 -23 -24 -33 -9 -62 8 -14 8 -23 0 -31 -19 -19 -13
-75 8 -87 30 -16 76 -12 94 8 21 23 22 66 2 82 -11 9 -13 16 -5 24 5 5 10 22
10 38 0 47 -63 65 -100 28z m69 -18 c12 -22 -3 -42 -31 -42 -24 0 -34 26 -18
45 17 20 37 19 49 -3z m-1 -84 c35 -35 -4 -82 -48 -58 -24 13 -26 33 -4 54 19
19 36 20 52 4z"/>
<path d="M5730 2230 c-43 -43 -14 -110 48 -110 42 0 33 -24 -20 -51 -43 -22
-44 -44 0 -28 109 42 127 209 22 209 -17 0 -39 -9 -50 -20z m78 -12 c35 -35
-15 -99 -53 -68 -30 25 -12 80 25 80 9 0 21 -5 28 -12z"/>
<path d="M6921 2231 c-16 -12 -20 -21 -12 -25 6 -4 16 -4 21 -1 7 4 9 -18 8
-64 -3 -60 -6 -71 -20 -71 -10 0 -18 -4 -18 -10 0 -5 20 -10 45 -10 45 0 60
12 29 24 -13 5 -15 18 -9 91 8 93 2 102 -44 66z"/>
<path d="M7047 2232 c-23 -25 -21 -35 4 -29 15 4 19 2 15 -10 -3 -8 -6 -39 -6
-69 0 -41 -4 -54 -15 -54 -8 0 -15 -4 -15 -10 0 -5 18 -10 40 -10 22 0 40 5
40 10 0 6 -4 10 -10 10 -6 0 -10 37 -10 90 0 95 -9 110 -43 72z"/>
<path d="M7517 2232 c-21 -23 -22 -36 -2 -28 12 4 15 -6 15 -64 0 -56 -3 -70
-15 -70 -8 0 -15 -4 -15 -10 0 -5 18 -10 40 -10 38 0 55 13 28 22 -8 3 -11 31
-9 91 2 93 -7 108 -42 69z"/>
<path d="M7639 2231 c-29 -23 -18 -39 15 -22 52 28 85 -5 41 -42 -60 -49 -75
-67 -75 -92 0 -24 2 -25 65 -25 36 0 65 4 65 9 0 15 -37 23 -70 16 -44 -10
-39 19 10 53 21 15 43 39 49 54 21 57 -48 91 -100 49z"/>
<path d="M8127 2232 c-23 -25 -21 -35 4 -29 19 5 21 3 15 -25 -3 -17 -6 -48
-6 -69 0 -28 -4 -39 -15 -39 -8 0 -15 -4 -15 -10 0 -5 20 -10 45 -10 25 0 45
5 45 10 0 6 -7 10 -15 10 -12 0 -15 17 -15 90 0 95 -9 110 -43 72z"/>
<path d="M8258 2239 c-31 -18 -20 -30 21 -23 24 4 41 2 46 -5 9 -16 -13 -41
-36 -41 -11 0 -19 -7 -19 -15 0 -8 8 -15 19 -15 40 0 56 -61 17 -68 -10 -2
-29 2 -42 9 -13 7 -27 9 -31 5 -12 -12 36 -46 63 -46 50 0 84 71 49 100 -11 9
-13 16 -5 24 5 5 10 22 10 38 0 41 -50 62 -92 37z"/>
<path d="M8748 2236 c-22 -16 -24 -40 -3 -32 13 5 15 -6 13 -64 -1 -59 -4 -70
-22 -76 -16 -6 -11 -8 23 -11 48 -5 65 3 38 19 -16 8 -17 19 -11 94 7 89 1
100 -38 70z"/>
<path d="M8879 2188 c-24 -35 -45 -66 -47 -70 -2 -4 18 -8 45 -10 45 -3 48 -5
53 -33 7 -40 24 -38 28 3 2 22 8 32 20 32 16 1 16 2 0 14 -14 10 -18 28 -18
70 0 77 -22 76 -81 -6z m51 -18 c0 -36 -2 -40 -25 -40 -14 0 -25 2 -25 5 0 6
44 75 48 75 1 0 2 -18 2 -40z"/>
<path d="M9357 2232 c-21 -23 -22 -36 -2 -28 12 4 15 -6 15 -64 0 -56 -3 -70
-15 -70 -8 0 -15 -4 -15 -10 0 -5 18 -10 40 -10 22 0 40 5 40 10 0 6 -4 10
-10 10 -6 0 -10 37 -10 90 0 95 -9 110 -43 72z"/>
<path d="M9462 2190 c-3 -64 4 -72 33 -40 35 39 84 9 71 -44 -9 -38 -50 -55
-75 -32 -13 12 -21 14 -26 6 -19 -31 52 -53 95 -30 29 16 44 73 28 107 -11 23
-21 29 -56 31 -53 4 -61 32 -8 32 40 0 66 8 66 21 0 5 -28 9 -63 9 l-63 0 -2
-60z"/>
<path d="M9972 2234 c-28 -19 -29 -38 -1 -31 20 5 21 3 15 -40 -3 -25 -6 -56
-6 -69 0 -15 -6 -24 -15 -24 -8 0 -15 -4 -15 -10 0 -5 20 -10 45 -10 25 0 45
5 45 10 0 6 -7 10 -16 10 -15 0 -16 10 -10 90 7 97 3 106 -42 74z"/>
<path d="M10129 2237 c-29 -22 -59 -81 -59 -117 0 -51 24 -80 64 -80 42 0 66
26 66 71 0 44 -15 59 -57 59 -40 0 -41 9 -8 40 36 34 31 56 -6 27z m36 -101
c16 -12 18 -19 10 -42 -18 -52 -75 -39 -75 16 0 39 31 51 65 26z"/>
<path d="M10587 2232 c-21 -23 -22 -36 -2 -28 12 4 15 -6 15 -64 0 -56 -3 -70
-15 -70 -8 0 -15 -4 -15 -10 0 -5 18 -10 40 -10 40 0 53 13 25 24 -13 4 -14
20 -9 91 6 72 5 85 -8 85 -8 0 -22 -8 -31 -18z"/>
<path d="M10680 2235 c0 -11 12 -15 51 -15 28 0 49 -3 47 -7 -32 -62 -68 -146
-68 -158 0 -21 19 -19 27 3 17 50 57 130 75 149 30 32 15 43 -63 43 -55 0 -69
-3 -69 -15z"/>
<path d="M11197 2232 c-23 -25 -21 -35 4 -29 18 5 20 2 15 -16 -3 -12 -6 -43
-6 -69 0 -36 -4 -48 -15 -48 -8 0 -15 -4 -15 -10 0 -5 21 -10 48 -10 41 1 45
2 30 14 -15 11 -18 29 -18 100 0 91 -9 106 -43 68z"/>
<path d="M11325 2233 c-12 -12 -16 -27 -12 -55 3 -21 1 -41 -4 -44 -16 -9 -10
-60 9 -77 25 -22 75 -21 95 1 21 23 22 66 2 82 -11 9 -13 16 -5 24 14 14 13
59 -2 74 -17 17 -64 15 -83 -5z m64 -17 c17 -20 2 -46 -25 -46 -29 0 -41 24
-24 45 16 19 34 19 49 1z m5 -92 c9 -8 16 -19 16 -24 0 -13 -30 -40 -45 -40
-20 0 -46 30 -39 43 24 41 43 47 68 21z"/>
<path d="M11813 2233 c-29 -19 -30 -37 -3 -30 20 5 20 2 16 -61 -3 -51 -8 -68
-20 -70 -34 -7 -14 -22 29 -22 45 0 60 12 29 24 -13 5 -15 18 -9 91 8 92 3
100 -42 68z"/>
<path d="M11930 2230 c-43 -43 -14 -110 48 -110 42 0 33 -24 -20 -51 -43 -22
-44 -44 0 -28 39 14 57 30 75 66 37 71 10 143 -53 143 -17 0 -39 -9 -50 -20z
m78 -12 c35 -35 -15 -99 -53 -68 -30 25 -12 80 25 80 9 0 21 -5 28 -12z"/>
<path d="M224 2230 c-37 -15 -54 -50 -54 -113 0 -61 18 -110 45 -121 35 -13
72 -6 96 20 21 22 24 35 24 101 0 70 -2 76 -28 99 -30 25 -48 28 -83 14z m60
-33 c25 -19 32 -93 13 -140 -12 -29 -22 -37 -41 -37 -36 0 -56 35 -56 97 0 76
39 113 84 80z"/>
<path d="M6278 2219 c-33 -25 -38 -54 -8 -44 19 6 20 3 16 -72 -4 -60 -9 -79
-20 -81 -35 -8 -13 -22 34 -22 51 0 64 11 33 28 -14 8 -16 25 -14 111 1 55 -2
101 -6 101 -4 0 -20 -10 -35 -21z"/>
<path d="M6433 2230 c-57 -23 -72 -162 -23 -215 34 -36 81 -34 114 6 22 26 26
40 26 96 0 58 -3 67 -29 94 -30 30 -50 34 -88 19z m71 -42 c19 -27 21 -103 3
-138 -8 -15 -23 -26 -39 -28 -36 -4 -58 30 -58 89 0 80 59 128 94 77z"/>
<path d="M12404 2216 c-35 -16 -48 -31 -39 -46 4 -7 14 -5 28 5 12 8 34 15 49
15 23 0 28 -4 28 -25 0 -17 -12 -33 -45 -55 -50 -34 -65 -56 -65 -94 0 -26 1
-26 76 -26 56 0 75 3 72 13 -3 7 -27 13 -61 15 -31 2 -57 8 -57 13 0 6 12 20
26 32 94 78 106 101 77 135 -25 28 -52 34 -89 18z"/>
<path d="M12594 2218 c-25 -12 -54 -68 -54 -106 0 -47 20 -101 43 -117 56 -39
120 -1 132 80 17 109 -44 181 -121 143z m60 -24 c37 -14 39 -135 3 -172 -27
-27 -65 -8 -78 40 -23 85 16 154 75 132z"/>
<path d="M682 2140 c0 -14 2 -19 5 -12 2 6 2 18 0 25 -3 6 -5 1 -5 -13z"/>
<path d="M646 2061 l-30 -36 34 32 c19 18 32 34 29 36 -2 2 -17 -12 -33 -32z"/>
<path d="M470 2055 c13 -14 26 -25 28 -25 3 0 -5 11 -18 25 -13 14 -26 25 -28
25 -3 0 5 -11 18 -25z"/>
<path d="M548 2013 c6 -2 18 -2 25 0 6 3 1 5 -13 5 -14 0 -19 -2 -12 -5z"/>
<path d="M11590 1975 c-14 -50 -16 -52 -41 -29 -16 14 -20 10 -58 -59 -66
-121 -70 -117 119 -117 l160 0 0 26 c0 14 -18 57 -41 96 -39 66 -42 69 -59 53
-20 -18 -22 -16 -39 38 -7 20 -16 37 -20 37 -5 0 -14 -20 -21 -45z"/>
<path d="M0 1529 c0 -5 5 -7 10 -4 5 3 10 8 10 11 0 2 -4 4 -10 4 -5 0 -10 -5
-10 -11z"/>
<path d="M25 1430 c10 -11 20 -20 23 -20 3 0 -3 9 -13 20 -10 11 -20 20 -23
20 -3 0 3 -9 13 -20z"/>
</g>
</svg>
